Release Info:

General

Format                                   : Matroska
Format version                           : Version 2
File size                                : 740 MiB
Duration                                 : 2h 21mn
Overall bit rate                         : 732 Kbps


Video
ID                                       : 1
Format                                   : MPEG-4 Visual
Format profile                           : Advanced Simple@L5
Format settings, BVOP                    : Yes
Format settings, QPel                    : No
Format settings, GMC                     : No warppoints
Format settings, Matrix                  : Custom
Codec ID                                 : V_MS/VFW/FOURCC / XVID
Codec ID/Hint                            : XviD
Duration                                 : 2h 21mn
Bit rate                                 : 590 Kbps
Width                                    : 608 pixels
Height                                   : 272 pixels
Display aspect ratio                     : 2.25:1
Frame rate mode                          : Constant
Frame rate                               : 23.976 fps
Color space                              : YUV
Chroma subsampling                       : 4:2:0
Bit depth                                : 8 bits
Scan type                                : Progressive
Compression mode                         : Lossy
Bits/(Pixel*Frame)                       : 0.149
Stream size                              : 596 MiB (81%)
Writing library                          : XviD 1.2.1 (UTC 2008-12-04)
Language                                 : Hindi
Default                                  : Yes
Forced                                   : No

Audio
ID                                       : 2
Format                                   : MPEG Audio
Format version                           : Version 1
Format profile                           : Layer 3
Mode                                     : Joint stereo
Mode extension                           : MS Stereo
Muxing mode                              : Header stripping
Codec ID                                 : A_MPEG/L3
Codec ID/Hint                            : MP3
Duration                                 : 2h 21mn
Bit rate mode                            : Constant
Bit rate                                 : 128 Kbps
Channel(s)                               : 2 channels
Sampling rate                            : 44.1 KHz
Compression mode                         : Lossy
Stream size                              : 129 MiB (17%)
Writing library                          : LAME3.98.2
Language                                 : Hindi
Default                                  : Yes
Forced                                   : No

Source:
credit to original movie ripper DDR (Thanks)

IMDB Info:

Yeh Jo Mohabbat Hai is a dramatic love story of two young people who are caught between love for each other and the generations old enmity between their respective Rajput families...

Director: Shree Narayan Singh
Writer: Dilip Shukla
Stars: Rati Agnihotri, Mohnish Bahl and Nazia Hussain 

Genres: Drama
 
http://www.imdb.com/title/tt2155776/

Screen Shot:
 
http://www.shotpix.com/images/41876493012152456302.png 
http://www.shotpix.com/images/86203244271721499920.png 
http://www.shotpix.com/images/65465987254230488759.png 
http://www.shotpix.com/images/72905430889653471020.png 
http://www.shotpix.com/images/90757482545444362519.png 
http://www.shotpix.com/images/87500284408621983399.png